<svg version="1.1" id="Layer_1" xmlns="http://www.w3.org/2000/svg" xmlns:xlink="http://www.w3.org/1999/xlink" x="0px" y="0px"
	 width="100%" viewBox="0 0 1054 1000" enable-background="new 0 0 1054 1000" xml:space="preserve">
<path fill="#FFFFFF" opacity="1.000000" stroke="none" 
	d="
M1055.000000,350.000000 
	C1055.000000,565.807129 1054.990234,781.114319 1055.084595,996.421387 
	C1055.086182,1000.023743 1054.507935,1001.106140 1050.579590,1001.104858 
	C702.288635,1000.991699 353.997681,1000.990234 5.706751,1001.115906 
	C1.561862,1001.117432 0.894032,1000.172424 0.895394,996.207825 
	C1.008838,666.081360 1.008249,335.954834 0.900551,5.828335 
	C0.899283,1.939131 1.448459,0.877953 5.670588,0.879537 
	C353.961517,1.010260 702.252502,1.007839 1050.543457,0.899291 
	C1054.398315,0.898090 1055.089722,1.898335 1055.086304,5.542462 
	C1054.981079,120.194908 1055.000000,234.847458 1055.000000,350.000000 
z"/>
<path fill="#0C0C0C" opacity="1.000000" stroke="none" 
	d="
M942.374634,549.000488 
	C942.374634,606.823975 942.374634,664.147339 942.374695,721.470764 
	C942.374695,787.287781 904.686523,840.778870 842.766846,862.912903 
	C832.582581,866.553467 822.124878,869.200012 811.608337,871.605347 
	C809.240784,872.146729 806.650635,871.728882 804.162964,871.728882 
	C638.191711,871.730591 472.220459,871.709106 306.249207,871.767761 
	C292.696747,871.772583 280.632996,866.567078 268.676178,861.372009 
	C231.246979,845.109436 204.246536,817.292236 183.327698,782.956726 
	C173.621384,767.025024 165.844849,750.152161 158.912613,732.866028 
	C158.408005,731.607666 158.190048,730.407837 158.190643,729.031250 
	C158.263535,562.228271 158.297348,395.425232 158.288528,228.622223 
	C158.288376,225.615616 158.541275,222.798599 159.448456,219.861511 
	C175.593964,167.587677 209.613571,131.193848 258.477722,107.859795 
	C272.448456,101.188377 286.974609,96.055252 301.753357,91.547516 
	C303.080505,91.142715 304.334229,91.052162 305.657349,91.052307 
	C464.462860,91.070236 623.269714,90.730614 782.072998,91.335938 
	C825.616028,91.501907 865.899475,103.510338 898.894470,133.862656 
	C920.277649,153.533142 933.431213,178.284378 942.171204,205.645264 
	C943.018433,208.297607 942.320618,210.929825 942.321960,213.557236 
	C942.378540,325.204956 942.372742,436.852722 942.374634,549.000488 
z"/>
<path fill="#FEFEFE" opacity="1.000000" stroke="none" 
	d="
M260.706665,114.614288 
	C266.353394,112.094742 271.658356,109.725784 277.012848,107.474648 
	C292.483673,100.970459 308.309570,97.872360 325.403900,97.920387 
	C477.564240,98.347847 629.727112,97.893044 781.887207,98.363235 
	C819.931824,98.480797 855.683960,108.187317 886.257935,132.259460 
	C910.485046,151.334473 925.292175,176.807114 934.683777,205.728210 
	C935.382202,207.878998 935.258118,210.346802 935.258484,212.667252 
	C935.282532,384.161469 936.021179,555.660828 934.838196,727.146851 
	C934.473633,779.992004 905.729858,830.722107 846.452942,853.934387 
	C828.347778,861.024170 809.911194,864.909485 790.140869,864.859741 
	C632.480469,864.463013 474.818451,864.505737 317.157806,864.839661 
	C301.054657,864.873779 286.280792,861.469727 271.821411,855.123901 
	C236.184937,839.484070 210.291397,813.187988 190.160187,780.584167 
	C181.058350,765.843201 173.627579,750.263611 167.115433,734.229431 
	C165.908234,731.257080 165.380829,728.218689 165.381470,724.995483 
	C165.414566,560.501038 165.430237,396.006561 165.382126,231.512131 
	C165.378479,219.057770 170.758987,208.310593 175.776840,197.530914 
	C193.544067,159.362137 222.894012,132.887711 260.706665,114.614288 
z"/>
<path fill="#0B0909" opacity="1.000000" stroke="none" 
	d="
M606.645142,765.587402 
	C577.438538,768.959717 548.659180,771.147400 519.607605,770.925964 
	C447.962036,770.379761 376.309479,770.767883 304.659760,770.740906 
	C282.322052,770.732483 271.360077,760.265076 270.170013,737.879272 
	C269.958038,733.891541 270.087738,729.884705 270.087555,725.886719 
	C270.083710,642.073181 269.469879,558.253662 270.274719,474.447845 
	C270.935608,405.632507 292.075195,343.404175 335.729736,289.643005 
	C379.213348,236.092361 434.808258,201.607376 502.254852,186.892929 
	C653.666992,153.860184 804.252319,243.796112 847.425354,392.754089 
	C894.398010,554.821594 794.264587,724.572876 630.095764,761.108643 
	C622.475281,762.804565 614.751343,764.035950 606.645142,765.587402 
z"/>
<path fill="#FEDBDB" opacity="1.000000" stroke="none" 
	d="
M345.325592,761.792786 
	C328.841980,762.447998 312.680084,762.694153 296.546478,761.914124 
	C287.151398,761.459839 280.301483,753.818359 279.106262,743.089355 
	C278.501282,737.658325 278.438171,732.147156 278.434479,726.671997 
	C278.377930,642.845032 278.100464,559.016541 278.567261,475.192322 
	C278.668823,456.955414 280.830536,438.660980 284.710632,420.338135 
	C285.752960,417.949402 286.086273,415.776794 286.322449,413.311279 
	C286.252655,412.448822 286.325043,411.889862 286.613129,411.140808 
	C289.551117,407.051727 289.932129,402.357117 291.191345,397.969788 
	C293.643890,389.424713 296.264221,380.928619 298.755676,371.980774 
	C304.836945,354.042236 313.375793,337.701019 323.413727,322.229858 
	C370.378937,249.843826 436.567535,206.146729 521.669128,192.371887 
	C663.421692,169.427277 802.651306,260.196228 839.902344,398.995667 
	C879.868835,547.912720 797.090454,699.600830 650.148926,746.571045 
	C631.571655,752.509399 612.351013,755.273132 593.109680,758.326416 
	C554.963196,764.379700 516.648315,761.819214 478.398590,762.265808 
	C441.914459,762.691772 405.420990,762.312805 368.479340,762.161682 
	C360.602051,760.466492 353.109467,761.947388 345.325592,761.792786 
z"/>
<path fill="#F3EBEA" opacity="1.000000" stroke="none" 
	d="
M298.593048,371.850525 
	C297.978516,380.306793 295.104797,388.556000 292.791931,396.912689 
	C291.472961,401.678406 291.471252,407.052704 287.197021,410.919586 
	C289.138733,397.552002 293.694824,384.817108 298.593048,371.850525 
z"/>
<path fill="#FFF7F5" opacity="1.000000" stroke="none" 
	d="
M345.450500,762.154175 
	C345.644775,761.132141 346.621613,760.907104 347.617828,761.031921 
	C354.244263,761.862244 360.945251,759.199646 367.781311,761.752014 
	C360.654236,762.111389 353.281372,762.187073 345.450500,762.154175 
z"/>
<path fill="#F3EBEA" opacity="1.000000" stroke="none" 
	d="
M286.062073,413.384186 
	C288.103455,415.417938 286.064484,417.424774 285.230499,419.796814 
	C285.281311,417.927399 285.612610,415.844025 286.062073,413.384186 
z"/>
<path fill="#F54948" opacity="1.000000" stroke="none" 
	d="
M458.155212,619.095337 
	C480.638031,621.668152 501.156708,615.005798 521.403442,608.054688 
	C537.807190,602.422974 554.846375,597.665405 569.122375,585.220093 
	C562.428589,584.620117 556.452454,584.130981 550.486389,583.540344 
	C536.293091,582.135132 522.921082,577.581177 509.539795,572.968140 
	C487.295074,565.299561 466.741180,554.596252 449.082703,538.931763 
	C436.996246,528.210144 425.371368,516.711182 415.989807,503.688049 
	C405.235291,488.759125 401.966339,471.203674 405.268463,452.734039 
	C406.497406,445.860321 407.390656,438.940399 409.904175,432.357697 
	C416.719086,414.510071 431.226990,406.980469 448.620361,402.970398 
	C464.010651,399.422150 478.600098,402.977203 493.284454,406.940094 
	C501.073547,409.042175 508.581940,411.412872 514.710449,416.984406 
	C516.247681,418.381897 517.293274,417.704254 517.808838,415.682709 
	C522.874573,395.820190 536.039307,381.818298 551.350769,369.342712 
	C560.132690,362.187378 569.911926,357.130371 580.914368,354.353271 
	C584.003967,353.573456 587.064697,352.885559 590.247131,352.827362 
	C606.246887,352.534698 621.496216,354.619446 633.312683,366.975800 
	C649.068970,383.451935 656.876831,403.112518 655.715637,425.910278 
	C654.425781,451.235016 648.855042,475.738098 638.339355,498.813293 
	C627.516663,522.562195 617.004639,546.526184 602.597046,568.460754 
	C601.985962,569.391113 600.923462,570.173401 601.309509,571.756165 
	C604.325745,572.313660 607.053345,570.948425 609.837219,570.116394 
	C637.359924,561.890076 661.387878,547.485291 683.825317,529.719666 
	C697.541870,518.859131 710.459961,507.661255 719.091736,492.197235 
	C720.204346,490.203979 721.932556,488.701477 724.411499,489.498383 
	C726.925720,490.306610 727.178040,492.551147 727.113342,494.833038 
	C726.999939,498.830750 727.034729,502.837708 726.763428,506.824188 
	C726.565002,509.740540 727.792603,510.370819 730.318542,509.687500 
	C735.164978,508.376404 739.762024,506.521667 744.003906,503.785614 
	C746.072388,502.451416 748.374023,500.533264 750.824280,502.466888 
	C753.572327,504.635529 751.874390,507.449066 750.840454,509.779541 
	C745.420227,521.996887 737.654114,532.266235 726.922241,540.545959 
	C709.286438,554.152100 690.755188,566.118164 669.701599,573.628113 
	C653.857788,579.279724 637.707886,583.847107 620.640747,584.080017 
	C611.992371,584.197937 603.380615,585.681824 594.701782,584.966797 
	C592.750122,584.806091 591.728760,585.716675 590.729004,587.275818 
	C569.735535,620.013977 538.866699,638.937134 502.643097,650.611328 
	C479.948059,657.925537 456.808136,657.940002 433.449738,656.191345 
	C430.426361,655.964905 428.317474,654.639282 427.495758,651.771912 
	C426.634796,648.767639 428.149872,646.578674 430.656281,645.132874 
	C433.240753,643.642029 435.873627,642.181213 438.625427,641.047363 
	C442.336853,639.518127 442.509979,637.510559 440.066833,634.683167 
	C438.107941,632.416199 436.295410,630.022766 434.339172,627.753418 
	C431.753082,624.753418 430.181946,621.578369 432.782867,617.861206 
	C435.342102,614.203674 439.091644,614.319824 442.684845,615.591064 
	C447.580627,617.323059 452.511963,618.676147 458.155212,619.095337 
z"/>
</svg>